<?xml version="1.0" encoding="utf-8"?>
<svg viewBox="0 0 1024 1024" xmlns="http://www.w3.org/2000/svg" xmlns:bx="https://boxy-svg.com">
  <defs>
    <linearGradient id="gradient-0" gradientUnits="userSpaceOnUse" x1="689.546" y1="0.082" x2="689.546" y2="970.122" gradientTransform="matrix(0.92009, 0.391707, -0.368212, 0.8649, 120.65742, -153.170184)">
      <stop offset="0" style="stop-color: rgba(187, 0, 0, 1)"/>
      <stop offset="1" style="stop-color: rgb(153, 0, 0);"/>
    </linearGradient>
    <linearGradient id="gradient-1" gradientUnits="userSpaceOnUse" x1="145.777" y1="199.852" x2="145.777" y2="988.334" gradientTransform="matrix(0.934938, 0.354811, -0.37641, 0.991853, 280.003313, -65.512866)">
      <stop offset="0" style="stop-color: rgba(187, 0, 0, 1)"/>
      <stop offset="1" style="stop-color: rgb(153, 0, 0);"/>
    </linearGradient>
  </defs>
  <path d="M 291.572 199.852 L -0.018 988.334 C -0.018 988.334 79.941 963.512 121.174 957.265 C 164.803 950.655 253.392 950.682 253.392 950.682 C 253.392 950.682 207.08 791.024 224.234 604.04 C 236.624 468.998 291.572 199.852 291.572 199.852 Z" style="stroke: black; stroke-width: 0; fill: url(#gradient-1);"/>
  <path d="M 388.066 309.734 C 388.066 309.734 484.895 198.332 540.647 150.37 C 606.589 93.642 753.982 0.082 753.982 0.082 C 753.982 0.082 738.9 230.006 798.438 413.232 C 889.026 692.02 1023.982 881.798 1023.982 881.798 C 1023.982 881.798 775.361 887.475 652.495 904.672 C 551.974 918.742 355.11 970.122 355.11 970.122 L 388.066 309.734 Z" style="stroke: black; stroke-width: 0; fill: url(#gradient-0);"/>
  <path d="M 350.042 171.8 C 353.3 113.376 402.9 91.422 402.9 91.422 L 353.426 1024.082 L 303.042 1024.082 C 303.042 1024.082 338.282 382.66 350.042 171.8 Z" style="fill: rgb(173, 173, 173);" bx:origin="-20 0"/>
  <path style="fill: rgb(216, 216, 216); stroke: rgb(0, 0, 0);" d="M 1390.173 283.945"/>
  <ellipse transform="matrix(0.891007, -0.45399, 0.45399, 0.891007, -65.548042, 386.481018)" cx="519.688" cy="468.713" rx="225.496" ry="225.496" style="stroke: rgb(255, 255, 255); stroke-width: 8;"/>
  <path d="M 767.809 427.862 C 656.539 307.925 503.778 473.561 602.372 572.154 C 703.979 673.762 543.095 840.871 448.108 745.886 C 406.648 704.425 380.092 647.755 380.092 584.49 C 380.093 459.953 481.052 358.995 605.588 358.995 C 669.279 358.995 726.803 385.401 767.809 427.862 Z" style="fill: rgb(255, 255, 255);" transform="matrix(0.891006, -0.453992, 0.453992, 0.891006, -194.647751, 322.318572)"/>
</svg>