<?xml version="1.0" encoding="utf-8"?>
<svg viewBox="0 0 1024 1024" xmlns="http://www.w3.org/2000/svg" xmlns:bx="https://boxy-svg.com">
  <path d="M 291.572 199.852 L -0.018 988.334 L 253.392 950.682 C 253.392 950.682 207.08 791.024 224.234 604.04 C 236.624 468.998 291.572 199.852 291.572 199.852 Z" style="stroke: black; stroke-width: 0; fill: rgb(187, 0, 0);"/>
  <path d="M 388.066 309.734 L 753.982 0.082 C 753.982 0.082 738.9 230.006 798.438 413.232 C 889.026 692.02 1023.982 881.798 1023.982 881.798 L 355.11 970.122 L 388.066 309.734 Z" style="stroke: black; stroke-width: 0; fill: rgb(187, 0, 0);"/>
  <path d="M 350.042 171.8 C 353.3 113.376 402.9 91.422 402.9 91.422 L 353.426 1024.082 L 303.042 1024.082 C 303.042 1024.082 338.282 382.66 350.042 171.8 Z" style="fill: rgb(173, 173, 173);" bx:origin="-20 0"/>
  <path d="M 339.172 365.254 L 388.974 354.5 C 388.974 354.5 389.488 364.53 389.188 369.532 C 388.946 373.58 387.568 381.59 387.568 381.59 L 337.5 393.642 C 337.5 393.642 337.074 384.102 337.354 379.346 C 337.634 374.618 339.172 365.254 339.172 365.254 Z" style="stroke: black; stroke-width: 0; fill: rgb(208, 208, 208);"/>
  <path d="M 332.896 471.322 L 383.356 460.568 C 383.356 460.568 383.876 470.6 383.572 475.602 C 383.328 479.648 381.932 487.66 381.932 487.66 L 331.2 499.71 C 331.2 499.71 330.768 490.17 331.052 485.414 C 331.336 480.688 332.896 471.322 332.896 471.322 Z" style="stroke: black; stroke-width: 0; fill: rgb(208, 208, 208);"/>
  <path d="M 327.352 578.854 L 377.922 568.1 C 377.922 568.1 378.444 578.13 378.14 583.132 C 377.894 587.18 376.496 595.192 376.496 595.192 L 325.654 607.242 C 325.654 607.242 325.22 597.702 325.506 592.946 C 325.79 588.218 327.352 578.854 327.352 578.854 Z" style="stroke: black; stroke-width: 0; fill: rgb(208, 208, 208);"/>
  <path d="M 321.534 689.84 L 372.652 679.086 C 372.652 679.086 373.18 689.118 372.872 694.118 C 372.624 698.168 371.21 706.178 371.21 706.178 L 319.818 718.228 C 319.818 718.228 319.38 708.69 319.668 703.934 C 319.956 699.206 321.534 689.84 321.534 689.84 Z" style="stroke: black; stroke-width: 0; fill: rgb(208, 208, 208);"/>
  <path d="M 315.064 799.516 L 365.786 788.764 C 365.786 788.764 366.308 798.794 366.006 803.796 C 365.758 807.844 364.354 815.854 364.354 815.854 L 313.36 827.904 C 313.36 827.904 312.926 818.366 313.214 813.61 C 313.498 808.882 315.064 799.516 315.064 799.516 Z" style="stroke: black; stroke-width: 0; fill: rgb(208, 208, 208);"/>
  <ellipse transform="matrix(0.891007, -0.45399, 0.45399, 0.891007, -62.501251, 385.134203)" cx="519.688" cy="468.713" rx="225.496" ry="225.496" style="stroke: rgb(255, 255, 255); stroke-width: 8;"/>
  <path d="M 770.856 426.515 C 659.586 306.578 506.825 472.214 605.419 570.807 C 707.026 672.415 546.142 839.524 451.155 744.539 C 409.695 703.078 383.139 646.408 383.139 583.143 C 383.14 458.606 484.099 357.648 608.635 357.648 C 672.326 357.648 729.85 384.054 770.856 426.515 Z" style="fill: rgb(255, 255, 255);" transform="matrix(0.891006, -0.453992, 0.453992, 0.891006, -193.704226, 323.555406)"/>
  <path style="fill: rgb(216, 216, 216); stroke: rgb(0, 0, 0);" d="M 1956.735 754.317"/>
</svg>