<?xml version="1.0" encoding="utf-8"?>
<svg viewBox="0 0 1024 1024" xmlns="http://www.w3.org/2000/svg" xmlns:bx="https://boxy-svg.com">
  <rect width="1024" height="1024" style="fill: rgb(34, 34, 34);"/>
  <path d="M 424.099 346.426 L 310.018 654.909 L 409.161 640.178 C 409.161 640.178 391.042 577.714 397.754 504.559 C 402.601 451.726 424.099 346.426 424.099 346.426 Z" style="stroke: black; stroke-width: 0; fill: rgb(187, 0, 0);"/>
  <path d="M 461.851 389.416 L 605.011 268.269 C 605.011 268.269 599.11 358.223 622.403 429.908 C 657.845 538.98 710.645 613.228 710.645 613.228 L 448.957 647.784 L 461.851 389.416 Z" style="stroke: black; stroke-width: 0; fill: rgb(187, 0, 0);"/>
  <path d="M 446.974 335.451 C 448.249 312.593 467.654 304.004 467.654 304.004 L 448.298 668.895 L 428.586 668.895 C 428.586 668.895 442.373 417.947 446.974 335.451 Z" style="fill: rgb(173, 173, 173);" bx:origin="-20 0"/>
  <path d="M 442.722 411.137 L 462.206 406.93 C 462.206 406.93 462.407 410.854 462.29 412.811 C 462.195 414.395 461.656 417.529 461.656 417.529 L 442.067 422.244 C 442.067 422.244 441.901 418.511 442.01 416.651 C 442.12 414.801 442.722 411.137 442.722 411.137 Z" style="stroke: black; stroke-width: 0; fill: rgb(208, 208, 208);"/>
  <path d="M 440.266 452.635 L 460.008 448.428 C 460.008 448.428 460.211 452.352 460.093 454.309 C 459.997 455.892 459.451 459.027 459.451 459.027 L 439.603 463.741 C 439.603 463.741 439.434 460.009 439.545 458.148 C 439.656 456.299 440.266 452.635 440.266 452.635 Z" style="stroke: black; stroke-width: 0; fill: rgb(208, 208, 208);"/>
  <path d="M 438.097 494.705 L 457.882 490.498 C 457.882 490.498 458.086 494.422 457.967 496.379 C 457.871 497.963 457.324 501.097 457.324 501.097 L 437.433 505.812 C 437.433 505.812 437.263 502.079 437.375 500.219 C 437.486 498.369 438.097 494.705 438.097 494.705 Z" style="stroke: black; stroke-width: 0; fill: rgb(208, 208, 208);"/>
  <path d="M 435.821 538.127 L 455.82 533.92 C 455.82 533.92 456.027 537.845 455.906 539.801 C 455.809 541.386 455.256 544.519 455.256 544.519 L 435.15 549.234 C 435.15 549.234 434.978 545.502 435.091 543.641 C 435.204 541.792 435.821 538.127 435.821 538.127 Z" style="stroke: black; stroke-width: 0; fill: rgb(208, 208, 208);"/>
  <path d="M 433.29 581.037 L 453.134 576.83 C 453.134 576.83 453.338 580.754 453.22 582.711 C 453.123 584.295 452.574 587.429 452.574 587.429 L 432.623 592.143 C 432.623 592.143 432.453 588.411 432.566 586.551 C 432.677 584.701 433.29 581.037 433.29 581.037 Z" style="stroke: black; stroke-width: 0; fill: rgb(208, 208, 208);"/>
  <ellipse transform="matrix(0.891007, -0.45399, 0.45399, 0.891007, 303.305015, 421.533902)" cx="186.954" cy="168.617" rx="81.12" ry="81.12" style="stroke: rgb(255, 255, 255); stroke-width: 8;"/>
  <path d="M 603.099 436.42 C 563.071 393.274 508.116 452.86 543.584 488.328 C 580.137 524.881 522.26 584.997 488.089 550.828 C 473.174 535.911 463.621 515.525 463.621 492.766 C 463.622 447.965 499.941 411.646 544.742 411.646 C 567.654 411.646 588.348 421.146 603.099 436.42 Z" style="fill: rgb(255, 255, 255);" transform="matrix(0.891005, -0.453993, 0.453993, 0.891005, -162.647573, 295.146904)"/>
  <path style="fill: rgb(216, 216, 216); stroke: rgb(0, 0, 0);" d="M 1075.572 563.353"/>
</svg>