<?xml version="1.0" encoding="utf-8"?>
<svg viewBox="0 0 1024 1024" xmlns="http://www.w3.org/2000/svg" xmlns:bx="https://boxy-svg.com">
  <defs>
    <linearGradient id="gradient-0" gradientUnits="userSpaceOnUse" x1="689.546" y1="0.082" x2="689.546" y2="970.122" gradientTransform="matrix(0.398272, 0.169555, -0.159385, 0.374382, 342.306236, 225.233055)">
      <stop offset="0" style="stop-color: rgba(187, 0, 0, 1)"/>
      <stop offset="1" style="stop-color: rgb(153, 0, 0);"/>
    </linearGradient>
    <linearGradient id="gradient-1" gradientUnits="userSpaceOnUse" x1="145.777" y1="199.852" x2="145.777" y2="988.334" gradientTransform="matrix(0.404699, 0.153584, -0.162934, 0.429336, 411.281059, 263.176598)">
      <stop offset="0" style="stop-color: rgba(187, 0, 0, 1)"/>
      <stop offset="1" style="stop-color: rgb(153, 0, 0);"/>
    </linearGradient>
    <linearGradient id="gradient-3" gradientUnits="userSpaceOnUse" x1="500" y1="0" x2="500" y2="1000" gradientTransform="matrix(-0.155555, -0.114856, 0.098606, -0.133548, 596.880178, 619.742381)">
      <stop offset="0" style="stop-color: rgba(0, 0, 0, 1)"/>
      <stop offset="1" style="stop-color: rgb(45, 45, 45);"/>
    </linearGradient>
    <linearGradient id="gradient-2" gradientUnits="userSpaceOnUse" x1="158.315" y1="211.504" x2="158.315" y2="1107.841" gradientTransform="matrix(0.146899, 0.125736, -0.082933, 0.096892, 476.467761, 528.598894)">
      <stop offset="0" style="stop-color: rgba(255, 255, 255, 1)"/>
      <stop offset="1" style="stop-color: rgba(204, 204, 204, 1)"/>
    </linearGradient>
  </defs>
  <rect width="1024" height="1024" style="fill: rgb(34, 34, 34);"/>
  <path style="fill: rgb(216, 216, 216); stroke: rgb(0, 0, 0);" d="M 1075.572 563.353"/>
  <path d="M 416.289 378.044 L 290.071 719.347 C 290.071 719.347 324.682 708.603 342.531 705.899 C 361.416 703.038 399.762 703.049 399.762 703.049 C 399.762 703.049 379.716 633.94 387.141 553.001 C 392.504 494.546 416.289 378.044 416.289 378.044 Z" style="stroke: black; stroke-width: 0; fill: url(#gradient-1);"/>
  <path d="M 458.058 425.608 C 458.058 425.608 499.972 377.386 524.104 356.624 C 552.648 332.069 616.449 291.571 616.449 291.571 C 616.449 291.571 609.921 391.096 635.692 470.408 C 674.904 591.084 733.321 673.232 733.321 673.232 C 733.321 673.232 625.703 675.689 572.519 683.134 C 529.007 689.224 443.792 711.464 443.792 711.464 L 458.058 425.608 Z" style="stroke: black; stroke-width: 0; fill: url(#gradient-0);"/>
  <path d="M 441.599 365.901 C 443.009 340.611 464.479 331.108 464.479 331.108 L 443.064 734.821 L 421.254 734.821 C 421.254 734.821 436.508 457.174 441.599 365.901 Z" style="fill: rgb(173, 173, 173);" bx:origin="-20 0"/>
  <path style="fill: rgb(216, 216, 216); stroke: rgb(0, 0, 0);" d="M 1578.41 648.768"/>
  <circle cx="555.524" cy="556.838" r="96.682" style="fill: url(#gradient-3);"/>
  <path d="M 567.547 528.762 C 522.616 480.502 452.405 535.975 500.96 586.834 C 550.287 638.499 490.388 707.179 438.897 656.751 C 422.004 640.206 411.407 617.266 411.362 591.8 C 411.279 541.675 451.906 501.052 502.113 501.052 C 527.785 501.052 552.253 511.216 567.547 528.762 Z" style="paint-order: stroke; stroke-width: 0px; stroke-opacity: 0; fill: url(#gradient-2);" transform="matrix(0.927497, -0.37383, 0.37383, 0.927497, -131.184122, 194.891867)" bx:origin="0.163171 -0.37739"/>
</svg>